<svg width="640" height="400" viewBox="0 0 640 400" xmlns="http://www.w3.org/2000/svg" role="img" aria-labelledby="title desc">
  <title id="title">Polestar Learning Platform Mockup</title>
  <desc id="desc">Education platform main screen with video module and progress chart</desc>
  <defs>
    <linearGradient id="bg" x1="0%" y1="0%" x2="100%" y2="100%">
      <stop offset="0%" stop-color="#111827" />
      <stop offset="100%" stop-color="#0f172a" />
    </linearGradient>
    <linearGradient id="accent" x1="0%" y1="0%" x2="100%" y2="100%">
      <stop offset="0%" stop-color="#06b6d4" />
      <stop offset="100%" stop-color="#f43f5e" />
    </linearGradient>
  </defs>
  <rect width="640" height="400" rx="24" fill="url(#bg)" />
  <rect x="32" y="48" width="576" height="304" rx="24" fill="#1f2937" stroke="#334155" stroke-width="2" />
  <rect x="56" y="72" width="192" height="32" rx="10" fill="#0ea5e9" opacity="0.4" />
  <rect x="528" y="72" width="56" height="24" rx="8" fill="#6366f1" opacity="0.6" />
  <rect x="56" y="124" width="320" height="180" rx="16" fill="#0f172a" stroke="#38bdf8" stroke-width="2" />
  <polygon points="206,200 246,224 206,248" fill="#38bdf8" opacity="0.8" />
  <rect x="400" y="124" width="176" height="76" rx="16" fill="#111827" stroke="#f43f5e" stroke-width="2" />
  <rect x="400" y="220" width="176" height="84" rx="16" fill="#111827" stroke="url(#accent)" stroke-width="2" />
  <rect x="424" y="148" width="96" height="10" rx="5" fill="#f43f5e" />
  <rect x="424" y="166" width="120" height="10" rx="5" fill="#fb7185" opacity="0.7" />
  <rect x="424" y="244" width="112" height="10" rx="5" fill="#0ea5e9" />
  <path d="M424 270 C440 254 456 300 472 280 C488 260 504 296 520 278 C536 260 552 294 568 276" stroke="#22d3ee" stroke-width="6" fill="none" stroke-linecap="round" />
  <rect x="56" y="318" width="128" height="12" rx="6" fill="#334155" />
  <rect x="196" y="318" width="88" height="12" rx="6" fill="#334155" />
  <rect x="296" y="318" width="112" height="12" rx="6" fill="#334155" />
</svg>

